<svg width="88" height="23" viewBox="0 0 88 23" fill="none" xmlns="http://www.w3.org/2000/svg">
<path d="M0.885367 2.74583V22.6752H0V0.206674L16.8525 20.4313V0.531449H17.7379V23L0.885367 2.74583Z" fill="#131313"/>
<path d="M22.7221 0.531449H23.7296V22.6752H22.7221V0.531449Z" fill="#131313"/>
<path d="M28.7112 0.531449H29.7187V21.819H36.8016V22.6752H28.7112V0.531449Z" fill="#131313"/>
<path d="M61.2938 22.6752H60.2252L55.89 14.2311H43.7391L39.4954 22.6752H38.4269L49.845 0L61.2938 22.6752ZM55.5236 13.3748L49.784 2.1258L44.1665 13.3748H55.5236Z" fill="#131313"/>
<path d="M64.6971 0.531449H65.7046V13.3748H81.397V0.531449H82.4044V22.6752H81.397V14.2311H65.7046V22.6752H64.6971V0.531449Z" fill="#131313"/>
<path d="M86.9315 22.941C86.6465 22.941 86.3921 22.8425 86.1682 22.6457C85.9647 22.4489 85.8629 22.2028 85.8629 21.9076C85.8629 21.632 85.9647 21.3958 86.1682 21.199C86.3921 21.0021 86.6465 20.9037 86.9315 20.9037C87.2164 20.9037 87.4606 21.0021 87.6642 21.199C87.8881 21.3958 88 21.632 88 21.9076C88 22.2028 87.8881 22.4489 87.6642 22.6457C87.4606 22.8425 87.2164 22.941 86.9315 22.941Z" fill="#131313"/>
</svg>
